<?xml version="1.0" standalone="no"?>
<!DOCTYPE svg PUBLIC "-//W3C//DTD SVG 20010904//EN"
 "http://www.w3.org/TR/2001/REC-SVG-20010904/DTD/svg10.dtd">
<svg version="1.0" xmlns="http://www.w3.org/2000/svg"
 width="758.000000pt" height="204.000000pt" viewBox="0 0 758.000000 204.000000"
 preserveAspectRatio="xMidYMid meet">

<g transform="translate(0.000000,204.000000) scale(0.100000,-0.100000)"
fill="#000000" stroke="none">
<path d="M4434 1711 c-72 -33 -118 -99 -128 -186 l-6 -50 13 50 c35 132 97
190 203 190 34 0 57 3 51 7 -22 14 -91 8 -133 -11z"/>
<path d="M4590 1706 c0 -2 8 -10 18 -17 15 -13 16 -12 3 4 -13 16 -21 21 -21
13z"/>
<path d="M4761 1646 c-12 -24 -24 -67 -28 -95 -3 -28 -6 -51 -7 -51 -1 0 -19
9 -41 20 -23 12 -59 20 -86 20 -46 0 -48 -1 -100 -67 -29 -38 -109 -136 -179
-218 -119 -141 -126 -151 -110 -168 9 -9 23 -17 31 -17 23 0 310 72 306 77 -3
2 -50 -8 -105 -22 -55 -14 -105 -25 -110 -25 -4 0 -20 18 -35 40 -14 23 -22
38 -16 34 6 -3 20 -20 31 -38 11 -17 17 -22 13 -11 -4 11 -8 25 -8 32 0 7 -4
10 -8 8 -3 -3 -12 2 -19 10 -11 13 -9 20 10 40 13 13 26 22 30 20 4 -2 18 8
31 23 22 25 22 25 2 8 -42 -36 -23 -7 84 126 59 73 107 134 108 136 1 1 13 -2
26 -7 16 -6 18 -10 7 -10 -17 -1 -132 -120 -150 -156 -12 -24 -9 -20 62 64 53
62 108 98 133 86 7 -4 3 1 -7 9 -20 16 -20 16 0 16 27 0 66 -29 58 -43 -4 -7
-3 -9 1 -4 9 7 45 -20 45 -34 0 -5 -13 -15 -30 -24 -35 -18 -41 -40 -9 -30
l22 7 -22 -31 c-27 -37 -9 -43 33 -10 l26 20 -6 -30 c-8 -40 2 -39 20 2 l14
32 1 -60 c1 -83 -7 -105 -43 -121 -24 -10 -26 -13 -10 -14 45 0 57 22 62 114
4 85 5 86 31 87 17 1 20 3 9 6 -29 7 -20 23 12 23 29 0 40 13 20 25 -5 3 -10
1 -10 -4 0 -6 -9 -11 -21 -11 l-20 0 20 26 c22 28 28 64 11 64 -5 0 -7 -7 -3
-15 6 -18 -23 -55 -44 -55 -17 0 -17 5 4 38 l17 27 -23 -20 c-19 -16 -24 -17
-32 -5 -13 19 -4 88 16 137 16 37 17 37 31 18 12 -16 16 -17 23 -6 5 8 16 11
26 7 14 -5 16 -13 10 -42 -6 -34 -5 -36 14 -31 18 4 20 2 15 -19 -4 -17 -2
-24 9 -24 13 0 26 -24 31 -56 0 -6 14 -22 31 -36 26 -23 28 -27 15 -43 -13
-16 -13 -18 0 -13 25 8 23 36 -5 62 -15 14 -24 30 -20 37 4 6 2 14 -4 18 -9 6
-9 15 -1 35 10 27 9 28 -16 22 -24 -6 -26 -5 -20 19 5 20 3 25 -13 25 -15 0
-21 8 -23 33 -3 27 -7 32 -30 32 -15 0 -33 6 -39 13 -20 19 -26 15 -48 -32z"/>
<path d="M4274 1635 c-18 -44 -37 -131 -31 -148 2 -6 7 10 11 37 4 28 16 71
27 98 21 55 16 66 -7 13z"/>
<path d="M4766 1564 c-4 -14 -5 -28 -3 -31 3 -2 8 8 11 23 4 14 5 28 3 31 -3
2 -8 -8 -11 -23z"/>
<path d="M4615 1470 c-3 -6 1 -7 9 -4 18 7 21 14 7 14 -6 0 -13 -4 -16 -10z"/>
<path d="M3768 1425 c-25 -35 -39 -46 -67 -50 -67 -10 -137 -35 -160 -56 -34
-32 -17 -35 46 -6 32 14 77 28 100 32 l41 7 -13 -46 c-8 -25 -19 -82 -25 -128
-14 -101 -37 -188 -50 -188 -6 0 -10 42 -10 99 0 55 -3 106 -6 115 -10 26 -43
18 -63 -15 -11 -18 -22 -26 -25 -20 -4 6 -18 11 -31 11 -21 0 -25 -7 -35 -57
-29 -139 -72 -134 -56 7 7 57 6 60 -18 66 -30 7 -46 -1 -46 -24 -1 -9 -12 -37
-25 -62 -22 -43 -23 -44 -29 -20 -3 14 -7 41 -8 60 -3 30 -7 35 -30 38 -25 3
-28 0 -34 -37 -3 -22 -16 -49 -29 -61 l-22 -21 -6 36 c-8 48 -23 65 -58 65
-33 0 -45 -17 -71 -105 l-17 -60 6 53 c5 51 5 52 -20 52 -14 0 -28 -7 -31 -16
-9 -24 -7 -240 4 -323 9 -70 22 -95 45 -88 6 2 13 66 16 148 6 143 29 283 49
303 16 16 30 -12 30 -60 0 -33 -5 -43 -25 -54 -30 -16 -41 -46 -25 -65 28 -33
82 -2 93 53 3 16 18 34 35 44 29 18 30 17 46 -7 21 -32 40 -32 72 0 l25 25 10
-28 c25 -65 73 -81 108 -36 12 15 21 33 21 40 0 17 12 18 29 2 10 -11 15 -9
27 6 8 11 14 27 14 36 0 9 7 25 15 36 13 17 14 11 15 -61 0 -87 15 -125 51
-125 21 0 58 53 60 85 0 11 7 -1 14 -26 18 -57 49 -88 73 -73 9 6 27 44 40 85
13 41 34 97 47 124 l24 50 0 -46 c2 -85 28 -129 80 -129 31 0 76 53 95 111 9
30 31 68 48 86 36 37 30 67 -7 33 l-23 -21 -6 28 c-10 40 -34 73 -59 82 -19 8
-17 10 18 16 50 9 115 44 115 62 0 17 -19 17 -39 -1 -31 -26 -85 -36 -197 -36
-122 0 -129 4 -98 48 16 23 13 52 -6 52 -6 0 -25 -20 -42 -45z m142 -85 l55 0
-32 -16 c-30 -15 -53 -55 -53 -91 0 -8 -11 -31 -25 -51 -14 -20 -37 -75 -51
-121 -23 -73 -28 -82 -38 -65 -16 28 -15 269 3 318 13 37 15 38 50 32 20 -3
61 -6 91 -6z m119 -66 c39 -50 19 -94 -42 -94 -18 0 -23 5 -23 21 1 12 -8 26
-19 33 -11 6 -22 12 -24 13 -2 1 4 14 13 28 23 34 67 34 95 -1z m-3 -169 c-10
-25 -26 -50 -37 -56 -16 -8 -21 -5 -30 18 -5 15 -9 38 -7 52 3 22 9 27 43 31
22 3 42 4 44 3 2 -1 -4 -23 -13 -48z"/>
<path d="M4647 1454 c-10 -10 2 -24 21 -23 14 0 14 2 -3 10 -15 7 -11 8 18 5
22 -3 35 -1 32 5 -7 10 -58 12 -68 3z"/>
<path d="M4873 1383 c15 -2 37 -2 50 0 12 2 0 4 -28 4 -27 0 -38 -2 -22 -4z"/>
<path d="M4630 1320 c0 -5 5 -10 11 -10 5 0 7 5 4 10 -3 6 -8 10 -11 10 -2 0
-4 -4 -4 -10z"/>
<path d="M4709 1254 c-7 -8 -26 -22 -43 -30 -24 -11 -25 -12 -6 -7 31 7 70 32
70 44 0 13 -6 11 -21 -7z"/>
<path d="M4735 1240 c-11 -11 -38 -26 -60 -34 -26 -9 -33 -15 -20 -16 13 -1 5
-7 -20 -15 -39 -14 -40 -14 -5 -8 19 3 44 9 55 14 l20 8 -20 1 c-16 1 -14 4
10 14 17 7 39 23 49 35 24 26 17 28 -9 1z"/>
<path d="M4624 1234 c-18 -14 -18 -14 6 -3 31 14 36 19 24 19 -6 0 -19 -7 -30
-16z"/>
<path d="M4450 1155 c-36 -13 -60 -24 -54 -24 5 -1 41 10 80 23 38 14 62 24
54 24 -8 0 -44 -10 -80 -23z"/>
<path d="M4568 1153 c7 -3 16 -2 19 1 4 3 -2 6 -13 5 -11 0 -14 -3 -6 -6z"/>
<path d="M2694 1066 c-3 -8 -13 -12 -23 -9 -25 6 -78 -41 -86 -76 -4 -17 0
-44 9 -65 18 -43 53 -49 86 -14 11 12 20 17 20 10 0 -17 45 -25 69 -13 20 11
51 62 65 109 5 16 3 22 -8 22 -8 0 -18 -10 -22 -22 -11 -36 -44 -79 -56 -72
-6 4 -7 29 -3 66 6 46 4 62 -6 69 -21 13 -39 11 -45 -5z m-14 -77 c0 -33 -15
-69 -30 -69 -16 0 -22 41 -10 71 17 39 40 38 40 -2z"/>
<path d="M4491 1034 c-34 -28 -102 -161 -121 -234 -11 -41 -62 -110 -82 -110
-5 0 -12 10 -17 23 -7 18 -3 28 26 54 41 38 41 66 -1 71 -42 5 -73 -29 -87
-96 -34 -164 -66 -206 -54 -72 8 89 -2 104 -52 81 -25 -12 -25 -11 -19 24 7
36 -5 65 -26 65 -5 0 -21 -12 -35 -27 -17 -19 -27 -24 -30 -15 -3 6 -14 12
-26 12 -16 -1 -31 -16 -52 -52 -39 -67 -60 -76 -52 -22 3 22 9 54 12 71 6 26
4 34 -10 39 -10 4 -26 2 -36 -4 -10 -7 -25 -9 -33 -6 -17 6 -72 -20 -79 -38
-4 -9 -13 -4 -29 15 -31 35 -52 34 -71 -4 -8 -18 -17 -27 -21 -20 -14 23 -42
8 -71 -36 -40 -63 -60 -69 -52 -17 3 22 9 54 12 71 6 26 4 34 -10 39 -10 4
-26 2 -36 -4 -10 -7 -25 -9 -33 -6 -23 9 -74 -26 -86 -58 -5 -15 -15 -41 -21
-57 -14 -39 -64 -85 -83 -78 -24 9 -21 89 4 118 10 13 19 18 20 12 0 -25 20
-13 20 12 0 38 -50 35 -84 -5 -49 -59 -44 -143 9 -169 25 -12 32 -12 62 4 18
10 41 31 51 47 16 26 20 27 32 14 17 -22 43 -20 65 4 l18 20 14 -20 c19 -27
45 -25 81 5 37 31 40 31 44 3 2 -14 11 -24 24 -26 17 -2 23 7 39 58 10 33 21
60 25 60 3 0 18 -6 33 -12 19 -9 27 -21 27 -38 0 -33 26 -70 49 -70 10 0 26 9
36 20 l18 20 14 -20 c19 -27 45 -25 82 5 30 26 30 26 41 5 17 -32 37 -24 59
25 11 25 21 45 23 45 2 0 3 -16 3 -36 0 -51 26 -66 58 -36 l24 22 -5 -55 c-7
-91 42 -137 86 -80 11 14 23 43 27 65 7 39 18 50 30 30 9 -14 41 -12 74 5 l29
14 6 -60 c14 -118 40 -145 88 -89 15 19 28 38 28 42 0 4 12 33 27 65 l26 58 8
-48 c19 -119 108 -116 168 4 19 39 44 71 66 86 19 13 35 28 35 33 0 13 -27 13
-35 0 -12 -20 -35 -10 -35 15 0 33 -25 81 -45 89 -27 10 -89 6 -106 -7 -22
-17 -39 -51 -39 -79 0 -13 -16 -45 -35 -72 -19 -27 -35 -53 -35 -56 0 -4 -9
-29 -21 -55 -16 -35 -23 -44 -30 -34 -13 20 -11 114 4 184 11 53 19 67 61 105
75 69 108 158 67 180 -26 13 -25 14 -60 -16z m49 -34 c0 -20 -28 -65 -56 -90
l-27 -25 33 63 c30 57 50 78 50 52z m144 -162 c9 -12 16 -39 16 -59 0 -34 -3
-37 -35 -43 -45 -9 -54 -3 -47 29 3 21 0 27 -17 32 -25 6 -26 12 -5 41 10 14
26 22 44 22 18 0 34 -8 44 -22z m-1268 -70 c-7 -35 -34 -70 -47 -62 -26 15 6
94 38 94 12 0 14 -7 9 -32z m389 0 c-8 -37 -33 -70 -46 -62 -25 15 6 94 37 94
12 0 14 -7 9 -32z m885 -70 c0 -11 -64 -91 -77 -95 -16 -6 -26 32 -19 70 6 30
8 32 51 32 25 0 45 -3 45 -7z"/>
<path d="M2722 755 c-7 -14 -12 -52 -12 -84 0 -110 74 -208 189 -252 70 -26
217 -24 266 5 17 9 22 15 13 12 -194 -58 -363 0 -434 149 -26 54 -32 132 -13
167 6 11 9 22 6 24 -2 2 -9 -7 -15 -21z"/>
<path d="M3145 339 c-16 -6 -75 -14 -130 -19 l-100 -9 115 3 c76 2 127 9 150
19 40 18 14 22 -35 6z"/>
</g>
</svg>
